<svg width="64" height="64" viewBox="0 0 64 64" fill="none" xmlns="http://www.w3.org/2000/svg">
<rect x="12" y="2" width="40" height="40" rx="16" fill="#137FEC"/>
<g filter="url(#filter0_dd_2_82)">
<rect x="12" y="2" width="40" height="40" rx="16" fill="white" fill-opacity="0.01" shape-rendering="crispEdges"/>
</g>
<path d="M41.8906 17.875L40.8594 14.5C40.7427 14.0565 40.5044 13.6952 40.1445 13.416C39.7871 13.1387 39.3847 13 38.9375 13H25.0625C24.6153 13 24.2129 13.1387 23.8555 13.416C23.4956 13.6952 23.2573 14.0565 23.1406 14.5L22.1094 17.875C21.9182 18.6778 21.994 19.4326 22.3366 20.1395C22.5119 20.5011 22.7305 20.8064 22.9924 21.0552C22.9965 21.0591 22.9991 21.0616 23 21.0625V28.9844C23 29.5469 23.1953 30.0234 23.5859 30.4141C23.9766 30.8047 24.4531 31 25.0156 31H38.9844C39.5469 31 40.0234 30.8047 40.4141 30.4141C40.8047 30.0234 41 29.5469 41 28.9844V21.0625C41.8854 20.1771 42.1823 19.1146 41.8906 17.875ZM32.9844 15.0156H34.9531L35.5156 18.5312C35.565 18.9013 35.4693 19.2314 35.2285 19.5215C34.9724 19.8301 34.6307 19.9844 34.2031 19.9844C33.8703 19.9844 33.5852 19.8594 33.3477 19.6094C33.1055 19.3544 32.9844 19.0419 32.9844 18.6719V15.0156ZM26.4219 18.8594C26.3987 19.1842 26.2737 19.4538 26.0469 19.668C25.8235 19.8789 25.5579 19.9844 25.25 19.9844C24.8104 19.9844 24.4725 19.7988 24.2363 19.4277C24.0223 19.0915 23.954 18.7301 24.0312 18.3438L25.0625 15.0156H27.0312L26.4219 18.8594ZM31.0156 18.6719C31.0156 19.0469 30.8906 19.3594 30.6406 19.6094C30.3906 19.8594 30.0781 19.9844 29.7031 19.9844C29.3312 19.9844 29.0226 19.8359 28.7773 19.5391C28.5348 19.2454 28.4371 18.9095 28.4844 18.5312L29.0469 15.0156H31.0156V18.6719ZM38.75 19.9844C38.4421 19.9844 38.1765 19.8789 37.9531 19.668C37.7263 19.4538 37.6013 19.1842 37.5781 18.8594L36.9688 15.0156L38.8906 14.9688L39.9688 18.3438C40.046 18.7301 39.9777 19.0915 39.7637 19.4277C39.5275 19.7988 39.1896 19.9844 38.75 19.9844Z" fill="white"/>
<defs>
<filter id="filter0_dd_2_82" x="0" y="0" width="64" height="64" filterUnits="userSpaceOnUse" color-interpolation-filters="sRGB">
<feFlood flood-opacity="0" result="BackgroundImageFix"/>
<feColorMatrix in="SourceAlpha" type="matrix" values="0 0 0 0 0 0 0 0 0 0 0 0 0 0 0 0 0 0 127 0" result="hardAlpha"/>
<feMorphology radius="4" operator="erode" in="SourceAlpha" result="effect1_dropShadow_2_82"/>
<feOffset dy="4"/>
<feGaussianBlur stdDeviation="3"/>
<feComposite in2="hardAlpha" operator="out"/>
<feColorMatrix type="matrix" values="0 0 0 0 0.0745098 0 0 0 0 0.498039 0 0 0 0 0.92549 0 0 0 0.2 0"/>
<feBlend mode="normal" in2="BackgroundImageFix" result="effect1_dropShadow_2_82"/>
<feColorMatrix in="SourceAlpha" type="matrix" values="0 0 0 0 0 0 0 0 0 0 0 0 0 0 0 0 0 0 127 0" result="hardAlpha"/>
<feMorphology radius="3" operator="erode" in="SourceAlpha" result="effect2_dropShadow_2_82"/>
<feOffset dy="10"/>
<feGaussianBlur stdDeviation="7.5"/>
<feComposite in2="hardAlpha" operator="out"/>
<feColorMatrix type="matrix" values="0 0 0 0 0.0745098 0 0 0 0 0.498039 0 0 0 0 0.92549 0 0 0 0.2 0"/>
<feBlend mode="normal" in2="effect1_dropShadow_2_82" result="effect2_dropShadow_2_82"/>
<feBlend mode="normal" in="SourceGraphic" in2="effect2_dropShadow_2_82" result="shape"/>
</filter>
</defs>
</svg>
